<svg xmlns="http://www.w3.org/2000/svg" width="682.667" height="682.667" preserveAspectRatio="xMidYMid meet" version="1.0" viewBox="0 0 512 512"><metadata>Created by potrace 1.14, written by Peter Selinger 2001-2017</metadata><g fill="#000" stroke="none"><path d="M2263 5057 c-67 -34 -125 -65 -128 -68 -3 -4 53 -126 125 -271 l132 -263 -122 -275 c-66 -151 -130 -295 -142 -320 -11 -25 -37 -83 -58 -130 -21 -47 -347 -706 -725 -1465 -378 -759 -786 -1578 -906 -1820 l-219 -440 2337 -3 c1285 -1 2338 0 2340 2 2 2 -397 809 -888 1792 -706 1417 -931 1879 -1085 2224 l-194 434 134 267 133 267 -135 66 c-103 51 -137 64 -143 54 -5 -7 -41 -79 -81 -160 -40 -81 -75 -147 -78 -148 -3 0 -27 44 -54 98 -101 203 -111 222 -116 221 -3 0 -60 -29 -127 -62z" transform="translate(0.000000,512.000000) scale(0.100000,-0.100000)"/></g></svg>